<svg width="1080" height="895" viewBox="0 0 1080 895" fill="none" xmlns="http://www.w3.org/2000/svg">
<g clip-path="url(#clip0)">
<path opacity="0.23" d="M533.324 841.47C761.369 841.47 946.236 656.805 946.236 429.009C946.236 201.213 761.369 16.5479 533.324 16.5479C305.279 16.5479 120.412 201.213 120.412 429.009C120.412 656.805 305.279 841.47 533.324 841.47Z" fill="#D6FFFF"/>
<path opacity="0.46" d="M529.368 877.776C744.577 877.776 919.038 867.271 919.038 854.312C919.038 841.354 744.577 830.849 529.368 830.849C314.159 830.849 139.698 841.354 139.698 854.312C139.698 867.271 314.159 877.776 529.368 877.776Z" fill="#419CE8"/>
<path d="M66.2638 512.489C43.7638 513.23 46.7308 489.025 65.2748 486.309C81.5935 483.839 100.879 492.73 105.577 494.953C98.1594 484.827 92.2253 475.935 88.5165 469.02C83.8187 465.315 68.9836 452.966 64.0385 434.936C58.1045 413.202 82.088 410.485 89.2583 427.774C94.9451 441.358 92.2253 459.881 90.7418 467.044C93.7089 472.478 97.9122 479.146 103.599 487.05C102.363 478.405 101.374 463.092 106.566 451.237C114.231 433.948 138.214 437.406 131.786 458.894C126.593 475.935 112.747 487.544 107.308 491.742C113.489 500.14 121.154 509.525 129.808 519.157C128.571 510.76 127.335 494.953 132.775 483.098C140.44 465.809 164.423 469.267 157.995 490.754C153.049 507.302 139.698 518.91 133.764 523.356C141.923 532 151.071 540.892 161.209 549.536C159.973 542.127 157.747 523.85 163.681 510.513C171.346 493.224 195.33 496.682 188.901 518.169C183.462 535.705 168.874 547.807 163.681 551.512C174.808 560.65 186.676 569.295 199.533 576.951C198.544 571.765 195.082 550.771 201.511 535.952C209.176 518.663 233.159 522.121 226.731 543.609C221.044 562.626 204.478 574.975 200.522 577.692C213.626 585.349 227.473 591.77 242.06 596.463C241.319 592.758 237.115 570.53 244.038 554.723C251.703 537.434 275.687 540.892 269.258 562.379C263.324 581.891 246.016 594.487 242.802 596.71C251.951 599.674 261.346 601.649 270.989 603.131C271.731 603.131 272.225 603.872 272.225 604.613C272.225 605.354 271.731 605.601 270.989 605.848C270.742 605.848 270.742 605.848 270.495 605.848C260.852 604.613 251.456 602.39 242.555 599.674C239.835 605.107 230.687 621.902 213.874 630.546C193.846 640.673 186.181 617.703 202.006 607.083C212.885 599.674 228.709 598.192 237.363 597.945C224.506 593.499 212.637 587.818 201.264 581.397C197.308 586.337 184.945 600.662 166.896 605.354C145.137 611.035 142.665 587.077 159.973 579.915C172.088 575.222 187.418 576.704 196.071 578.186C183.214 570.53 171.593 561.885 161.456 553.241C158.984 556.699 145.879 573.246 126.346 578.433C104.588 584.114 102.115 560.156 119.423 552.994C134.258 547.066 154.286 550.771 159.973 552.253C153.791 547.066 148.104 541.88 142.912 536.94C139.203 533.235 135.742 529.778 132.28 526.073C129.56 529.778 116.456 545.831 97.1704 551.018C75.4122 556.699 72.9396 532.741 90.2473 525.579C104.835 519.651 124.615 523.356 130.797 524.838V524.591C121.401 514.712 113.242 504.832 106.319 495.694C103.599 498.164 86.7858 511.748 66.2638 512.489Z" fill="#D6FFFF"/>
<path d="M117.94 765.893C100.632 768.856 106.566 786.886 121.401 786.145C134.258 785.404 147.61 775.525 150.824 773.055C146.621 781.947 143.654 789.603 141.676 795.531C138.462 798.988 129.313 810.844 128.077 825.415C126.841 842.951 145.632 841.222 148.599 826.897C150.824 815.536 145.879 801.952 143.654 796.766C145.137 792.32 147.363 786.392 150.33 779.477C150.824 786.145 152.308 798.247 157.995 806.398C166.401 818.5 184.451 812.078 176.044 796.766C169.368 784.663 157.006 777.748 152.308 775.278C155.769 767.869 160.22 759.471 165.412 750.827C165.907 757.495 167.39 769.844 173.077 777.995C181.484 790.097 199.533 783.675 191.126 768.363C184.698 756.507 172.83 749.592 167.637 747.122C172.583 739.219 178.269 730.821 184.698 722.918C184.945 728.845 185.934 742.923 192.61 752.309C201.017 764.411 219.066 757.989 210.659 742.676C203.736 730.08 190.632 723.165 186.181 720.942C193.105 712.297 201.017 703.653 209.67 695.997C209.67 700.195 210.165 716.743 217.583 727.116C225.989 739.219 244.039 732.797 235.632 717.484C228.214 703.9 213.874 696.985 210.412 695.503C219.313 687.599 228.709 680.684 239.341 674.756C239.341 677.72 239.588 695.503 247.253 706.37C255.659 718.472 273.709 712.051 265.302 696.738C257.885 682.66 242.555 675.744 239.835 674.509C246.264 670.804 253.187 667.841 260.357 665.371C260.852 665.124 261.346 664.63 261.099 663.889C260.852 663.395 260.604 663.148 260.11 663.148H259.863C252.692 665.618 245.769 668.829 239.341 672.286C236.621 668.582 226.731 656.973 212.637 653.022C195.824 648.329 193.599 667.1 207.198 672.78C216.594 676.732 228.956 675.497 235.632 674.509C226.484 679.943 218.077 686.117 210.659 692.539C206.951 689.328 195.083 680.19 180.742 679.449C163.187 678.461 164.918 697.232 179.506 699.948C189.396 701.677 201.017 698.22 207.445 695.75C198.791 703.653 191.126 712.051 184.698 720.201C182.225 717.978 169.615 707.358 154.039 706.37C136.484 705.382 138.214 724.153 152.802 726.869C164.918 729.092 179.753 723.165 183.956 721.189C180 726.129 176.539 731.068 173.324 735.514C171.099 738.725 168.874 742.182 166.896 745.393C164.176 742.923 151.813 732.55 136.236 731.562C118.681 730.574 120.412 749.345 135 752.062C147.115 754.285 161.703 748.357 166.154 746.381C166.154 746.381 166.154 746.381 166.154 746.628C160.467 755.766 155.769 764.658 152.061 772.561C148.846 771.079 133.764 763.176 117.94 765.893Z" fill="#D6FFFF"/>
<path d="M271.484 753.05C280.879 752.803 296.703 765.646 293.736 787.628C286.813 775.525 278.654 769.845 274.698 775.031C270.742 780.218 279.148 782.194 284.093 787.875C289.039 793.555 290.275 799.236 289.533 802.694C288.791 806.151 280.385 817.759 272.967 824.428C276.181 812.326 271.484 793.555 264.313 797.013C257.143 800.718 273.709 811.585 260.11 833.319C254.918 837.518 242.802 841.223 242.802 841.223C242.802 841.223 247.5 816.278 238.599 818.253C229.945 820.229 239.588 833.319 232.912 843.199C225.495 843.446 203.984 846.162 203.984 846.162L197.802 818.253C197.802 818.253 205.962 810.597 214.121 809.609C222.527 808.621 221.291 802.941 216.346 801.953C211.648 800.965 202.995 803.434 196.813 809.362C195.824 801.953 197.555 789.85 199.533 787.134C201.511 784.417 213.379 774.537 225 776.266C229.451 777.007 231.181 775.525 231.676 773.303C232.17 771.08 229.203 769.104 224.753 768.363C220.302 767.622 210.659 769.104 203.736 774.044C206.703 764.905 215.852 753.544 218.819 751.568C221.786 749.592 231.181 749.592 239.093 753.791C242.308 756.014 246.758 759.965 249.478 756.755C252.198 753.791 249.973 751.568 244.286 747.369C238.599 743.418 233.407 742.677 230.934 742.924C234.89 739.96 245.522 737.49 253.681 739.466C262.088 741.442 268.517 746.381 271.484 753.05Z" fill="#D6FFFF"/>
<path d="M282.855 739.466C282.36 739.219 281.124 738.231 280.382 737.737L264.311 759.965L205.959 768.857C205.464 769.845 204.97 771.079 204.475 772.067L208.432 771.573C214.613 768.857 221.289 767.869 224.75 768.61C225.245 768.61 225.739 768.857 226.234 768.857L262.085 763.423L252.69 776.266L203.486 783.676C201.508 785.157 200.272 786.392 199.778 787.133L250.464 779.477L240.822 792.814L197.305 799.482C197.305 800.47 197.058 801.458 197.058 802.446L238.349 796.272L228.706 809.609L204.723 813.313C202.497 814.795 200.519 816.03 199.283 817.018L226.234 813.067L218.816 823.44L200.025 826.404L200.767 829.367L216.591 826.897L203.981 844.186L204.475 846.409C204.475 846.409 205.217 846.409 206.206 846.162L219.063 828.379L222.772 844.186C223.761 844.186 224.75 843.939 225.739 843.939L221.289 825.169L228.459 815.289L234.393 840.976C235.382 838.506 235.629 835.789 235.629 833.072L230.684 812.079L240.574 798.494L249.97 839C250.959 838.753 251.701 838.259 252.69 837.765L242.305 795.284L252.195 781.7L262.827 827.638C263.569 825.663 264.311 823.934 264.558 822.205L254.421 778.489L263.816 765.399L276.673 820.476C277.415 819.735 278.404 818.747 279.146 817.759L266.289 762.188L282.855 739.466Z" fill="#B0F0FF"/>
<path d="M176.786 596.957C228.462 582.138 269.258 615.48 269.258 615.48C269.258 615.48 252.198 665.371 200.769 680.19C149.093 695.009 82.5825 669.076 82.5825 669.076C82.5825 669.076 125.357 611.776 176.786 596.957Z" fill="#D6FFFF"/>
<path d="M225.742 612.764C221.044 610.541 216.594 608.812 212.885 607.577C209.176 606.342 205.962 605.601 203.736 605.354C201.511 605.107 200.275 604.86 200.275 604.86C200.275 604.86 204.973 606.342 211.649 610.047C215.11 611.776 219.066 614.245 223.269 616.715C225.495 617.95 227.72 619.432 230.192 620.914C230.687 621.161 231.429 621.655 231.923 621.902C220.797 625.113 210.165 628.323 200.275 631.534C200.275 631.534 200.028 631.534 200.028 631.287C188.901 624.125 177.528 619.926 169.121 617.95C164.918 616.962 161.456 616.715 158.984 616.715C156.511 616.715 155.275 616.715 155.275 616.715C155.275 616.715 156.511 616.962 158.984 617.456C161.209 617.95 164.671 618.938 168.379 620.42C175.302 623.137 184.203 627.583 193.352 633.263C181.978 636.968 171.346 640.426 161.951 643.389L161.456 643.142C160.467 642.648 159.478 641.908 158.736 641.414C157.006 640.426 155.028 639.438 153.297 638.45C149.835 636.721 146.374 635.239 143.654 634.498C140.687 633.51 138.462 633.263 136.731 633.016C135 633.016 134.258 633.016 134.258 633.016C134.258 633.016 135.247 633.263 136.731 633.51C138.214 634.004 140.687 634.745 143.16 635.733C145.879 636.968 148.846 638.45 152.308 640.426C154.039 641.414 155.769 642.402 157.5 643.636C157.995 643.883 158.489 644.13 158.736 644.624C133.022 653.022 117.198 658.949 117.198 658.949C117.198 658.949 133.764 655.245 159.973 648.823C159.725 649.317 159.478 649.811 159.231 650.305C158.242 652.281 157.5 654.01 156.511 655.739C154.78 659.196 153.05 662.16 151.319 664.63C149.588 667.1 148.105 668.829 147.116 670.064C145.879 671.298 145.138 671.792 145.138 671.792C145.138 671.792 145.879 671.298 147.363 670.311C148.599 669.323 150.577 667.594 152.555 665.371C154.533 663.148 156.511 660.184 158.736 656.726C159.725 654.998 160.714 653.269 161.703 651.293C162.198 650.305 162.692 649.317 163.187 648.329L163.434 647.835C173.077 645.365 183.709 642.648 195.577 639.685C190.632 649.564 185.687 657.961 181.236 663.889C178.764 667.347 176.539 669.817 174.808 671.545C173.077 673.274 172.088 674.015 172.088 674.015C172.088 674.015 173.324 673.521 175.302 672.039C177.28 670.805 180 668.582 183.214 665.618C189.396 659.69 196.813 649.811 202.253 637.956C202.253 637.956 202.253 637.709 202.5 637.709C212.638 634.992 223.269 632.028 234.396 629.064C234.149 629.558 233.901 630.299 233.407 630.793C232.171 633.263 230.934 635.733 229.945 637.956C227.72 642.401 225.495 646.6 223.764 649.811C220.055 656.48 216.841 660.184 216.841 660.184C216.841 660.184 217.83 659.443 219.561 657.961C221.291 656.479 223.517 654.257 225.989 651.293C228.462 648.329 231.181 644.377 234.149 640.179C235.632 637.956 236.868 635.733 238.352 633.263C239.341 631.287 240.577 629.064 241.813 627.089C245.028 626.101 247.995 625.36 251.209 624.372C257.885 622.396 263.572 620.667 268.022 618.938C269.258 616.221 269.753 614.739 269.753 614.739C269.753 614.739 268.517 613.752 266.044 612.023C261.346 613.011 255.66 614.492 248.984 616.468C245.769 617.456 242.802 618.197 239.588 619.185C237.363 617.95 235.385 616.962 233.407 615.727C230.44 614.986 227.967 613.752 225.742 612.764Z" fill="#B0F0FF"/>
<path d="M91.4836 579.421C111.264 585.842 117.445 605.601 117.445 605.601C117.445 605.601 101.126 617.95 81.099 611.529C61.3187 605.107 45.2473 582.138 45.2473 582.138C45.2473 582.138 71.4561 572.999 91.4836 579.421Z" fill="#D6FFFF"/>
<path d="M103.846 595.228C102.857 593.499 101.868 592.017 100.879 590.782C99.8901 589.547 99.1483 588.559 98.4066 588.065C97.6648 587.571 97.4176 587.077 97.4176 587.077C97.4176 587.077 98.6538 588.559 99.8901 591.276C100.632 592.511 101.374 594.24 102.115 595.969C102.61 596.957 102.857 597.698 103.352 598.686C103.352 598.933 103.599 599.18 103.599 599.427C99.3956 597.945 95.1923 596.71 91.2362 595.722C89.2582 591.029 86.5384 587.077 84.0659 584.608C82.8296 583.373 81.8406 582.632 81.0989 581.891C80.3571 581.397 79.8626 581.15 79.8626 581.15C79.8626 581.15 80.1099 581.397 80.8516 582.138C81.5934 582.879 82.3351 583.867 83.3242 585.102C85.0549 587.571 86.7857 590.782 88.5165 594.734C84.0659 593.499 79.8626 592.264 76.1538 591.029V590.782C75.9066 590.288 75.9066 590.041 75.6593 589.547C75.4121 588.806 74.9176 588.065 74.6703 587.324C73.9285 586.09 73.1868 584.855 72.445 583.867C71.7033 582.879 70.9615 582.385 70.467 581.891C69.9725 581.397 69.7253 581.397 69.7253 581.397C69.7253 581.397 69.9725 581.644 70.467 582.138C70.9615 582.632 71.456 583.373 71.9505 584.361C72.445 585.349 73.1868 586.584 73.9285 587.818C74.1758 588.559 74.6703 589.3 74.9176 590.041C74.9176 590.288 75.1648 590.535 75.1648 590.535C65.0274 587.571 58.5989 586.09 58.5989 586.09C58.5989 586.09 64.7802 588.559 74.6703 592.264C74.4231 592.264 74.4231 592.511 74.1758 592.511C73.434 593.005 72.6923 593.252 72.1978 593.746C70.9615 594.487 69.7253 594.981 68.489 595.475C67.5 595.969 66.511 596.216 66.0165 596.216C65.2747 596.216 65.0274 596.463 65.0274 596.463C65.0274 596.463 65.2747 596.463 66.0165 596.463C66.7582 596.463 67.5 596.216 68.7362 595.969C69.9725 595.722 71.2088 595.228 72.6923 594.487C73.434 594.24 74.1758 593.746 74.9176 593.499C75.1648 593.252 75.6593 593.005 75.9066 592.758H76.1538C79.8626 593.993 83.8187 595.475 88.2692 597.204C84.5604 599.427 81.0989 600.908 78.3791 601.896C76.8956 602.39 75.6593 602.884 74.6703 602.884C73.6813 603.131 73.1868 603.131 73.1868 603.131C73.1868 603.131 73.6813 603.131 74.6703 603.131C75.6593 603.131 76.8956 603.131 78.6263 602.884C81.8406 602.39 86.5384 600.662 90.7417 598.192C94.6978 599.427 98.6538 600.908 102.857 602.39C102.61 602.637 102.363 602.637 102.115 602.884C101.126 603.378 100.385 603.872 99.3956 604.366C97.6648 605.354 96.1813 606.095 94.6978 606.836C91.978 608.318 90.2472 608.812 90.2472 608.812C90.2472 608.812 90.7417 608.812 91.4835 608.812C92.2253 608.812 93.4615 608.565 94.945 608.071C96.4286 607.577 98.1593 607.083 99.8901 606.095C100.879 605.601 101.868 605.354 102.857 604.86C103.599 604.366 104.588 604.119 105.33 603.625C106.566 604.119 107.802 604.366 109.038 604.86C111.511 605.601 113.736 606.342 115.714 606.836C116.703 606.342 117.198 605.848 117.198 605.848C117.198 605.848 116.951 605.107 116.703 604.119C114.973 603.378 112.747 602.637 110.275 601.896C109.038 601.402 107.802 601.155 106.566 600.662C106.071 599.921 105.824 598.933 105.33 598.192C104.835 596.957 104.341 595.969 103.846 595.228Z" fill="#B0F0FF"/>
<path d="M63.5441 709.828C88.2694 694.515 114.725 705.876 114.725 705.876C114.725 705.876 113.242 734.526 88.5166 749.839C63.7913 765.152 24.9727 761.447 24.9727 761.447C24.9727 761.447 38.8188 725.141 63.5441 709.828Z" fill="#D6FFFF"/>
<path d="M91.4836 710.816C88.7639 710.322 86.0441 710.075 84.066 710.075C81.8408 710.075 80.11 710.075 78.8737 710.322C77.6375 710.569 77.143 710.569 77.143 710.569C77.143 710.569 79.8628 710.569 83.8188 711.557C85.7968 712.051 88.2693 712.545 90.9891 713.286C92.2254 713.78 93.7089 714.027 95.1924 714.521C95.4397 714.521 95.9342 714.768 96.1814 714.768C90.7419 718.225 85.7968 721.436 81.099 724.4C81.099 724.4 81.099 724.4 80.8518 724.4C73.9287 722.424 67.5001 721.683 62.8023 721.93C60.3298 722.177 58.599 722.424 57.3628 722.671C56.1265 722.918 55.3847 723.165 55.3847 723.165C55.3847 723.165 56.1265 723.165 57.3628 722.918C58.599 722.918 60.577 722.918 62.8023 723.165C66.7584 723.659 72.1979 724.647 77.8847 726.129C72.4452 729.833 67.2529 733.044 62.8023 736.008H62.5551C62.0606 735.761 61.3188 735.761 60.8243 735.514C59.588 735.267 58.599 735.02 57.61 734.773C55.3847 734.279 53.654 734.032 51.9232 734.032C50.1924 734.032 48.9562 734.032 47.9671 734.279C46.9781 734.526 46.4836 734.526 46.4836 734.526C46.4836 734.526 46.9781 734.526 47.9671 734.526C48.9562 734.526 50.1924 734.526 51.6759 734.773C53.1595 735.02 55.1375 735.267 57.1155 736.008C58.1045 736.255 59.0935 736.502 60.3298 736.996C60.577 736.996 60.8243 737.243 61.0715 737.243C48.9562 745.393 41.5386 750.827 41.5386 750.827C41.5386 750.827 49.6979 746.628 62.5551 739.219C62.5551 739.466 62.5551 739.713 62.3078 740.207C62.0606 741.442 61.8133 742.43 61.8133 743.418C61.3188 745.393 60.8243 747.369 60.3298 748.851C59.8353 750.333 59.3408 751.568 58.8463 752.309C58.3518 753.05 58.1045 753.544 58.1045 753.544C58.1045 753.544 58.3518 753.297 59.0935 752.556C59.588 751.815 60.3298 750.827 61.0715 749.345C61.8133 747.863 62.3078 746.134 63.0496 743.912C63.2968 742.924 63.5441 741.689 63.7913 740.701C63.7913 740.207 64.0386 739.466 64.0386 738.972V738.725C68.7364 736.008 73.9287 733.044 79.6155 729.833C78.6265 735.761 77.143 740.948 75.6595 744.652C74.9177 746.875 74.1759 748.357 73.4342 749.592C72.6924 750.58 72.4452 751.321 72.4452 751.321C72.4452 751.321 72.9397 750.827 73.9287 749.839C74.9177 748.851 75.9067 747.369 77.143 745.393C79.6155 741.195 81.8408 735.267 83.077 728.105C83.077 728.105 83.077 728.105 83.077 727.858C88.0221 724.894 93.2144 721.93 98.654 718.472C98.654 718.719 98.4067 719.213 98.4067 719.46C98.1595 720.942 97.9122 722.424 97.665 723.659C97.1704 726.376 96.6759 728.846 96.1814 730.821C95.1924 734.773 94.2034 737.243 94.2034 737.243C94.2034 737.243 94.6979 736.749 95.1924 735.761C95.9342 734.773 96.6759 733.291 97.665 731.315C98.654 729.34 99.3957 726.87 100.137 724.153C100.632 722.918 100.879 721.436 101.374 719.954C101.621 718.719 101.868 717.484 102.363 716.249C103.846 715.261 105.33 714.521 106.813 713.533C110.028 711.557 112.747 709.828 114.973 708.099C115.22 706.617 115.22 705.629 115.22 705.629C115.22 705.629 114.478 705.382 112.995 704.888C110.769 706.123 107.802 707.852 104.588 709.828C103.105 710.816 101.621 711.804 100.137 712.545C98.9012 712.298 97.665 712.051 96.4287 711.557C94.2034 711.31 92.7199 711.063 91.4836 710.816Z" fill="#B0F0FF"/>
<path d="M1010.27 583.867C974.917 592.264 947.966 568.307 947.966 568.307C947.966 568.307 961.07 534.964 996.428 526.567C1031.78 518.169 1076.29 537.928 1076.29 537.928C1076.29 537.928 1045.63 575.469 1010.27 583.867Z" fill="#D6FFFF"/>
<path d="M977.638 571.765C980.852 573.493 983.572 574.728 986.044 575.716C988.517 576.704 990.742 577.198 992.226 577.445C993.709 577.692 994.451 577.939 994.451 577.939C994.451 577.939 991.484 576.704 987.033 573.987C984.808 572.752 982.088 571.024 979.368 569.048C977.885 568.06 976.401 567.072 974.918 566.084C974.671 565.837 974.176 565.59 973.682 565.343C981.346 563.367 988.517 561.638 995.44 559.909C995.44 559.909 995.44 559.909 995.687 559.909C1003.1 565.096 1010.52 568.307 1016.21 569.789C1019.18 570.53 1021.4 570.777 1023.13 571.024C1024.86 571.024 1025.6 571.024 1025.6 571.024C1025.6 571.024 1024.62 570.777 1023.13 570.53C1021.65 570.036 1019.42 569.295 1016.7 568.06C1012.01 566.084 1006.32 562.626 1000.14 558.428C1008.05 556.452 1015.22 554.229 1021.9 552.5L1022.14 552.747C1022.88 553.241 1023.38 553.488 1023.87 553.982C1025.11 554.723 1026.35 555.464 1027.58 556.205C1029.81 557.44 1032.03 558.427 1034.01 559.168C1035.99 559.909 1037.47 560.156 1038.71 560.403C1039.95 560.65 1040.44 560.65 1040.44 560.65C1040.44 560.65 1039.95 560.403 1038.71 560.156C1037.72 559.909 1036.24 559.168 1034.26 558.428C1032.53 557.44 1030.55 556.452 1028.32 554.97C1027.34 554.229 1026.1 553.488 1024.86 552.747C1024.62 552.5 1024.37 552.253 1023.87 552.006C1041.43 547.066 1052.56 543.609 1052.56 543.609C1052.56 543.609 1041.18 545.584 1023.13 549.042C1023.38 548.795 1023.38 548.301 1023.63 548.054C1024.37 546.819 1024.86 545.584 1025.6 544.349C1026.84 542.127 1028.08 540.151 1029.31 538.422C1030.55 536.94 1031.54 535.705 1032.28 534.964C1033.02 534.223 1033.52 533.729 1033.52 533.729C1033.52 533.729 1033.02 533.976 1032.03 534.717C1031.04 535.458 1029.81 536.446 1028.32 537.928C1026.84 539.41 1025.36 541.386 1023.87 543.609C1023.13 544.843 1022.39 545.831 1021.65 547.066C1021.4 547.807 1020.91 548.301 1020.66 549.042L1020.41 549.289C1013.74 550.524 1006.32 552.006 998.407 553.735C1002.12 547.313 1005.82 541.633 1009.04 537.681C1010.77 535.458 1012.5 533.729 1013.74 532.741C1014.97 531.753 1015.71 531.012 1015.71 531.012C1015.71 531.012 1014.97 531.259 1013.49 532.247C1012.01 532.988 1010.03 534.47 1007.8 536.446C1003.35 540.398 998.16 546.819 993.956 554.476C993.956 554.476 993.956 554.476 993.956 554.723C987.033 556.205 979.616 557.934 971.951 559.662C972.198 559.168 972.445 558.921 972.693 558.428C973.682 556.699 974.423 555.217 975.412 553.735C977.143 550.771 978.627 548.054 980.11 545.831C982.83 541.386 985.055 538.916 985.055 538.916C985.055 538.916 984.313 539.41 983.077 540.398C981.841 541.386 980.357 542.868 978.379 544.843C976.649 546.819 974.671 549.289 972.445 552.253C971.456 553.735 970.467 555.217 969.478 556.946C968.737 558.181 967.748 559.662 967.006 561.144C964.78 561.638 962.802 562.132 960.577 562.626C955.879 563.614 952.171 564.849 948.956 565.837C948.214 567.566 947.72 568.554 947.72 568.554C947.72 568.554 948.709 569.295 950.193 570.53C953.407 570.036 957.363 569.048 962.061 568.06C964.286 567.566 966.264 567.072 968.489 566.578C969.973 567.566 971.209 568.307 972.693 569.048C974.423 570.036 975.907 570.777 977.638 571.765Z" fill="#B0F0FF"/>
<path d="M973.679 712.545C952.663 707.111 944.998 687.105 944.998 687.105C944.998 687.105 961.069 673.027 982.333 678.461C1003.35 683.895 1021.4 706.37 1021.4 706.37C1021.4 706.37 994.695 717.978 973.679 712.545Z" fill="#D6FFFF"/>
<path d="M959.835 696.985C961.072 698.714 962.061 700.196 963.297 701.431C964.286 702.666 965.275 703.407 966.017 704.147C966.758 704.641 967.006 704.888 967.006 704.888C967.006 704.888 965.769 703.407 964.039 700.69C963.297 699.455 962.308 697.726 961.319 695.997C960.824 695.009 960.33 694.021 959.835 693.033C959.588 692.786 959.588 692.539 959.341 692.292C963.791 693.527 968.242 694.515 972.445 695.503C974.918 700.196 977.885 704.147 980.605 706.37C981.841 707.605 983.077 708.346 983.819 708.84C984.561 709.334 985.055 709.581 985.055 709.581C985.055 709.581 984.561 709.334 983.819 708.593C983.077 707.852 982.088 706.864 981.099 705.629C979.368 703.16 977.143 699.949 974.918 695.997C979.615 696.985 984.066 697.973 988.022 698.961V699.208C988.269 699.702 988.517 699.949 988.764 700.443C989.258 701.184 989.506 701.925 990 702.666C990.989 703.9 991.731 705.135 992.473 706.123C993.214 707.111 993.956 707.605 994.698 708.099C995.192 708.593 995.687 708.593 995.687 708.593C995.687 708.593 995.44 708.346 994.945 707.852C994.451 707.358 993.709 706.617 993.214 705.629C992.473 704.641 991.731 703.406 990.989 702.172C990.495 701.431 990.247 700.69 989.753 699.949C989.753 699.702 989.506 699.455 989.506 699.455C1000.14 701.678 1007.06 702.913 1007.06 702.913C1007.06 702.913 1000.63 700.69 990 697.726C990.247 697.479 990.247 697.479 990.495 697.232C991.236 696.738 991.978 696.244 992.473 695.997C993.709 695.256 994.945 694.515 996.181 694.021C997.17 693.527 998.159 693.28 998.901 693.033C999.643 692.786 999.89 692.786 999.89 692.786C999.89 692.786 999.643 692.786 998.901 692.786C998.159 692.786 997.17 693.033 996.181 693.527C994.945 694.021 993.709 694.515 992.225 695.256C991.484 695.75 990.742 695.997 990 696.491C989.753 696.738 989.258 696.985 989.011 697.232L988.764 697.479C984.808 696.244 980.605 695.009 975.907 693.774C979.616 691.304 983.077 689.328 985.797 688.341C987.28 687.6 988.764 687.106 989.506 687.106C990.495 686.859 990.989 686.859 990.989 686.859C990.989 686.859 990.495 686.859 989.506 686.859C988.517 686.859 987.033 687.106 985.302 687.6C981.841 688.34 977.39 690.316 972.94 693.28C968.736 692.045 964.533 691.057 960.083 689.822C960.33 689.575 960.577 689.575 960.824 689.328C961.813 688.834 962.555 688.093 963.544 687.6C965.275 686.365 966.758 685.377 968.242 684.636C970.962 683.154 972.692 682.413 972.692 682.413C972.692 682.413 972.198 682.413 971.209 682.66C970.22 682.907 968.984 683.154 967.5 683.648C966.017 684.142 964.286 684.883 962.308 685.871C961.319 686.365 960.33 686.859 959.341 687.353C958.599 687.846 957.61 688.34 956.868 688.834C955.632 688.587 954.396 688.093 952.912 687.847C950.192 687.106 947.72 686.612 945.989 686.365C945 687.106 944.506 687.6 944.506 687.6C944.506 687.6 944.753 688.34 945.247 689.328C947.225 689.822 949.451 690.563 952.17 691.304C953.407 691.551 954.643 692.045 956.127 692.292C956.621 693.033 957.115 694.021 957.61 694.762C958.599 695.256 959.094 696.244 959.835 696.985Z" fill="#B0F0FF"/>
<path d="M847.83 626.348C840.906 617.704 841.648 593.252 864.643 580.162C857.967 595.475 858.709 607.33 866.621 607.33C874.286 607.33 870.082 597.698 872.06 589.054C874.038 580.162 878.489 574.976 882.198 573.247C885.906 571.518 903.214 570.777 915.082 573.247C901.236 578.927 886.648 596.957 895.302 601.156C903.956 605.354 902.472 581.644 933.132 578.927C941.044 580.903 953.159 589.795 953.159 589.795C953.159 589.795 926.209 603.379 934.368 610.294C942.527 617.21 947.967 598.439 962.308 597.698C967.995 604.613 986.044 622.89 986.044 622.89L963.791 649.07C963.791 649.07 950.687 646.848 943.764 639.685C936.841 632.523 932.143 637.956 934.863 643.143C937.582 648.329 945.742 654.751 955.879 656.233C949.451 662.407 936.841 669.57 932.885 669.817C928.929 669.817 910.879 665.618 904.203 653.516C901.483 648.823 899.011 648.082 896.538 649.564C894.066 650.799 894.313 654.751 896.786 659.691C899.258 664.383 907.665 672.534 917.555 675.497C906.676 679.202 889.368 678.955 885.165 677.473C881.209 675.991 874.533 667.347 872.802 656.48C872.555 651.787 873.049 644.625 868.104 644.378C863.159 644.131 862.912 647.835 863.159 655.986C863.407 664.383 866.621 669.57 868.352 671.793C862.665 670.064 852.775 661.913 848.571 652.775C843.626 643.637 843.626 634.004 847.83 626.348Z" fill="#D6FFFF"/>
<path d="M826.813 625.358C826.813 626.099 826.813 628.075 826.813 628.816L859.698 628.075L910.385 677.224C911.868 676.977 913.104 676.73 914.588 676.236L911.126 672.779C903.956 669.074 898.516 663.146 896.538 659.442C896.291 658.948 896.044 658.454 895.797 657.713L864.89 627.581L883.929 627.087L926.703 668.58C929.423 669.321 931.648 669.568 932.885 669.568L888.626 627.334L908.407 626.84L946.236 663.393C947.225 662.652 948.214 662.158 949.203 661.417L913.352 626.593L933.132 626.099L953.901 646.351C956.868 647.586 959.588 648.327 961.319 648.821L938.077 626.099L953.407 625.852L969.725 641.659L971.95 638.942L958.104 625.605L983.819 625.111L985.549 623.135C985.549 623.135 985.055 622.641 984.066 621.653L957.857 622.147L970.22 607.081C969.478 606.093 968.489 605.352 967.747 604.364L953.159 622.147L938.571 622.394L958.599 598.19C955.385 598.931 952.665 600.66 950.192 602.636L933.626 622.641L913.599 623.135L945.247 584.853C944.258 584.359 943.269 583.618 942.28 583.124L908.901 623.382L888.874 623.876L924.973 580.407C922.5 580.901 920.522 581.642 918.544 582.63L884.176 624.123L864.89 624.617L907.912 572.504C906.429 572.257 905.192 572.257 903.709 572.01L860.44 624.37L826.813 625.358Z" fill="#B0F0FF"/>
<path d="M896.786 581.397C896.786 581.15 883.681 564.602 860.44 561.144C849.313 559.415 837.692 560.65 828.297 561.885C845.604 554.97 861.923 546.572 877.253 536.693C881.209 540.892 892.335 551.512 910.137 551.265C933.379 551.265 956.374 531.013 956.126 531.013C956.126 530.766 940.549 518.416 918.791 520.145C908.654 520.886 898.764 524.344 890.852 527.555C904.698 517.428 917.555 506.314 929.423 493.965C933.874 496.929 944.753 502.857 959.093 499.646C977.885 495.447 993.214 475.194 993.214 475.194C993.214 474.947 978.132 467.291 960.33 472.478C952.665 474.701 945.495 478.652 939.808 482.604C948.214 472.725 956.126 462.351 963.297 451.484C967.747 453.213 977.39 456.177 988.516 451.484C1003.6 445.31 1013.49 426.292 1013.24 426.292C1013.24 426.292 999.643 421.599 985.549 428.515C979.863 431.232 975.165 435.183 970.962 438.888C975.412 431.479 979.368 423.822 983.077 416.166C983.077 415.919 983.324 415.672 983.324 415.425C988.269 411.72 996.429 404.064 1000.38 392.702C1006.57 375.661 1000.38 359.113 1000.38 359.113C1000.38 359.113 987.775 370.474 982.335 386.034C978.626 396.407 978.626 407.027 978.874 413.202C978.626 413.449 978.626 413.696 978.379 413.943C974.67 421.599 970.714 429.009 966.511 436.418C967.747 431.232 968.489 425.057 967.253 419.129C964.038 404.31 950.934 397.889 950.934 397.642C950.934 397.642 944.753 412.461 947.225 426.786C948.956 437.406 955.632 445.063 958.846 448.273C951.923 458.894 944.011 469.267 935.852 478.652C938.819 472.478 941.291 465.068 940.797 457.412C939.808 439.876 925.714 429.75 925.714 429.75C925.714 429.997 916.319 445.31 916.071 462.104C916.071 474.947 922.253 485.568 925.467 489.766C913.846 501.869 901.236 512.736 887.637 522.615C893.077 516.194 898.269 507.549 899.753 497.917C902.967 477.417 888.626 462.598 888.874 462.598C888.874 462.845 874.78 477.911 870.577 496.929C867.363 511.995 871.813 526.073 874.286 531.753C859.203 541.386 843.132 549.783 826.071 556.452C833.489 551.265 841.896 543.115 845.852 533.482C854.258 512.983 843.132 493.965 843.379 493.965C843.379 494.212 825.082 506.314 815.687 525.085C808.269 540.151 809.258 556.205 810.247 562.379C803.571 564.602 796.648 566.578 789.725 568.307C787.994 568.801 786.758 570.283 787.005 571.765C787.253 573.247 789.231 573.987 790.961 573.493C798.132 571.765 805.055 569.789 811.731 567.319C814.698 572.753 823.352 586.831 842.637 591.029C867.857 597.204 897.28 581.644 896.786 581.397Z" fill="#D6FFFF"/>
<path d="M897.033 676.485C897.033 676.732 884.423 693.774 861.428 698.22C850.302 700.442 838.681 699.701 829.286 698.467C846.84 704.641 863.406 712.545 879.231 721.93C883.187 717.484 893.819 706.617 911.621 706.123C934.862 705.382 958.599 724.647 958.104 724.894C958.104 725.141 943.022 737.984 921.016 736.996C910.879 736.502 900.742 733.538 892.83 730.574C906.923 740.207 920.275 750.827 932.637 762.682C936.841 759.718 947.72 753.05 962.06 756.014C981.099 759.471 997.17 779.23 996.923 779.23C996.923 779.477 982.088 787.627 964.286 783.182C956.621 781.206 949.45 777.501 943.516 773.796C952.417 783.182 960.577 793.308 967.994 803.928C972.198 801.952 982.088 798.742 993.214 802.94C1008.54 808.621 1018.93 827.144 1018.93 827.144C1018.93 827.144 1005.33 832.331 990.989 825.91C985.302 823.44 980.357 819.488 976.154 816.03C980.851 823.193 985.055 830.849 989.011 838.506C989.258 838.753 989.258 839 989.258 839.247C994.203 842.704 1002.86 850.114 1007.31 861.228C1013.98 878.023 1008.3 894.818 1008.3 894.571C1008.3 894.571 995.439 883.703 989.258 868.391C985.055 858.017 984.807 847.644 984.807 841.47C984.56 841.223 984.56 840.975 984.313 840.729C980.357 833.072 976.154 825.91 971.703 818.747C973.187 823.934 974.176 830.108 973.187 836.036C970.467 850.855 957.61 858.017 957.61 858.017C957.61 858.017 950.934 843.198 952.912 829.12C954.395 818.5 960.577 810.597 963.791 807.139C956.373 796.766 948.214 786.886 939.56 777.501C942.775 783.429 945.247 791.085 945.247 798.494C945 816.03 931.154 826.651 931.154 826.651C931.154 826.404 921.016 811.338 920.522 794.543C920.027 781.7 925.961 770.832 928.928 766.387C916.813 754.779 903.709 744.158 889.862 734.773C895.549 740.948 901.236 749.592 902.967 758.977C906.676 779.23 893.077 794.79 893.324 794.79C893.324 794.543 878.736 779.971 873.791 761.2C870.082 746.134 874.038 731.809 876.264 726.376C860.934 717.237 844.368 709.581 827.308 703.406C834.972 708.346 843.626 716.002 848.077 725.635C857.225 745.887 846.593 765.152 846.84 765.152C846.84 764.905 828.297 753.544 818.159 735.02C810.247 720.201 810.494 704.147 811.483 697.973C804.808 695.997 797.884 694.268 790.714 692.786C788.983 692.292 787.5 691.057 787.994 689.575C788.242 688.093 789.972 687.352 791.95 687.599C799.121 689.081 806.044 690.81 812.967 693.033C815.687 687.599 824.093 673.274 843.132 668.335C867.362 661.666 897.28 676.238 897.033 676.485Z" fill="#D6FFFF"/>
<path d="M419.341 337.131L261.841 338.86C247.747 339.107 237.115 351.456 238.846 365.534L281.868 675.744C283.599 687.352 293.489 695.997 305.357 695.997L790.961 690.316C802.83 690.069 812.72 681.178 813.956 669.57L843.626 401.594C844.615 392.208 837.445 384.058 827.802 384.305L457.665 388.751L444.313 352.197C439.368 342.565 429.725 337.131 419.341 337.131Z" fill="#FFCB00"/>
<path d="M419.341 344.541L261.841 346.27C247.747 346.517 237.115 358.866 238.846 372.944L272.967 683.154L822.363 676.732L843.379 408.756C844.368 399.371 837.198 391.22 827.555 391.467L457.417 395.913L444.066 359.36C439.368 349.974 429.725 344.541 419.341 344.541Z" fill="#FFBA00"/>
<path d="M245.522 430.985L273.214 683.154L822.61 676.732L842.39 424.069L245.522 430.985Z" fill="#E79A15"/>
<path d="M526.126 181.992L244.932 235.875L312.616 588.317L593.81 534.434L526.126 181.992Z" fill="#EFEEEE"/>
<path opacity="0.42" d="M526.154 182.026L521.703 182.767L477.198 532.494L552.857 542.127L593.901 534.223L526.154 182.026Z" fill="#D3E2EC"/>
<path d="M480.267 217.814L300.575 252.247L303.556 267.771L483.248 233.338L480.267 217.814Z" fill="#D1D2D3"/>
<path d="M520.324 425.494L340.632 459.927L343.614 475.451L523.306 441.018L520.324 425.494Z" fill="#D1D2D3"/>
<path d="M526.28 456.615L346.588 491.049L349.57 506.573L529.262 472.139L526.28 456.615Z" fill="#D1D2D3"/>
<path d="M532.189 487.495L352.497 521.929L355.478 537.453L535.17 503.019L532.189 487.495Z" fill="#D1D2D3"/>
<path d="M439.777 249.572L349.931 266.789L351.421 274.551L441.267 257.334L439.777 249.572Z" fill="#D1D2D3"/>
<path d="M394.95 298.812L295.633 317.844L297.124 325.605L396.44 306.574L394.95 298.812Z" fill="#D1D2D3"/>
<path d="M399.418 321.769L300.102 340.801L301.593 348.563L400.909 329.531L399.418 321.769Z" fill="#D1D2D3"/>
<path d="M403.841 344.482L304.525 363.514L306.016 371.276L405.332 352.244L403.841 344.482Z" fill="#D1D2D3"/>
<path d="M408.31 367.439L308.994 386.47L310.485 394.232L409.801 375.201L408.31 367.439Z" fill="#D1D2D3"/>
<path d="M412.779 390.396L313.462 409.427L314.953 417.189L414.269 398.158L412.779 390.396Z" fill="#D1D2D3"/>
<path d="M416.959 413.155L317.643 432.187L319.133 439.948L418.45 420.917L416.959 413.155Z" fill="#D1D2D3"/>
<path d="M515.112 275.797L415.796 294.829L417.287 302.591L516.603 283.559L515.112 275.797Z" fill="#D1D2D3"/>
<path d="M519.338 298.802L420.022 317.833L421.513 325.595L520.829 306.564L519.338 298.802Z" fill="#D1D2D3"/>
<path d="M523.761 321.514L424.445 340.546L425.936 348.308L525.252 329.276L523.761 321.514Z" fill="#D1D2D3"/>
<path d="M528.23 344.471L428.914 363.502L430.405 371.264L529.721 352.233L528.23 344.471Z" fill="#D1D2D3"/>
<path d="M532.699 367.428L433.383 386.46L434.873 394.222L534.189 375.19L532.699 367.428Z" fill="#D1D2D3"/>
<path d="M536.879 390.187L437.563 409.219L439.053 416.981L538.37 397.949L536.879 390.187Z" fill="#D1D2D3"/>
<path d="M820.642 214.571L536.614 178.477L491.276 534.472L775.304 570.566L820.642 214.571Z" fill="#EFEEEE"/>
<path d="M766.017 234.346L584.514 211.281L582.517 226.961L764.02 250.026L766.017 234.346Z" fill="#D1D2D3"/>
<path d="M739.303 444.283L557.8 421.218L555.803 436.898L737.306 459.963L739.303 444.283Z" fill="#D1D2D3"/>
<path d="M735.342 475.654L553.838 452.589L551.841 468.269L733.345 491.334L735.342 475.654Z" fill="#D1D2D3"/>
<path d="M731.412 506.78L549.909 483.714L547.912 499.395L729.415 522.46L731.412 506.78Z" fill="#D1D2D3"/>
<path d="M717.678 252.014L626.927 240.482L625.928 248.322L716.68 259.855L717.678 252.014Z" fill="#D1D2D3"/>
<path d="M659.772 284.938L559.45 272.225L558.449 280.065L658.771 292.778L659.772 284.938Z" fill="#D1D2D3"/>
<path d="M656.818 307.941L556.501 295.193L555.502 303.033L655.82 315.781L656.818 307.941Z" fill="#D1D2D3"/>
<path d="M653.836 331.154L553.519 318.406L552.52 326.246L652.838 338.994L653.836 331.154Z" fill="#D1D2D3"/>
<path d="M650.855 354.367L550.538 341.619L549.539 349.459L649.857 362.207L650.855 354.367Z" fill="#D1D2D3"/>
<path d="M648.15 377.365L547.833 364.617L546.835 372.457L647.152 385.206L648.15 377.365Z" fill="#D1D2D3"/>
<path d="M645.169 400.578L544.852 387.829L543.854 395.67L644.171 408.418L645.169 400.578Z" fill="#D1D2D3"/>
<path d="M780.937 300.25L680.615 287.537L679.613 295.377L779.935 308.09L780.937 300.25Z" fill="#D1D2D3"/>
<path d="M777.951 323.498L677.634 310.75L676.635 318.59L776.953 331.338L777.951 323.498Z" fill="#D1D2D3"/>
<path d="M775.001 346.465L674.684 333.717L673.685 341.557L774.003 354.305L775.001 346.465Z" fill="#D1D2D3"/>
<path d="M772.02 369.678L671.703 356.929L670.704 364.77L771.021 377.518L772.02 369.678Z" fill="#D1D2D3"/>
<path d="M769.316 392.676L668.998 379.928L668 387.768L768.317 400.516L769.316 392.676Z" fill="#D1D2D3"/>
<path d="M766.336 415.887L666.019 403.139L665.02 410.979L765.337 423.727L766.336 415.887Z" fill="#D1D2D3"/>
<path d="M814.203 832.331L284.093 838.506C271.236 838.753 260.357 829.121 258.379 816.524L211.648 478.158C209.423 462.846 221.291 449.261 236.621 449.261L852.28 442.099C867.61 441.852 879.725 455.189 877.995 470.502L839.176 810.103C837.94 822.452 827.06 832.331 814.203 832.331Z" fill="#FFFF5F"/>
<path d="M814.451 839.988L284.341 846.162C271.484 846.409 260.605 836.777 258.626 824.181L211.896 485.568C209.67 470.255 221.539 456.671 236.868 456.671L852.528 449.508C867.857 449.261 879.973 462.598 878.242 477.911L839.423 817.512C837.94 830.109 827.308 839.741 814.451 839.988Z" fill="#FFD600"/>
<path opacity="0.34" d="M583.47 608.634C665.994 582.052 711.319 493.677 684.707 411.243C658.095 328.81 569.624 283.534 487.1 310.117C404.577 336.7 359.251 425.075 385.863 507.508C412.475 589.941 500.947 635.217 583.47 608.634Z" fill="#FFFAD2"/>
<path d="M751.657 625.117L686.117 566.059L660.778 594.116L726.318 653.175L751.657 625.117Z" fill="#00628D"/>
<path d="M732.739 608.078L705.018 583.099L679.679 611.156L707.401 636.136L732.739 608.078Z" fill="#2190C7"/>
<path d="M712.83 682.66C704.918 675.497 704.176 663.148 711.346 655.245L755.11 606.836C762.28 598.933 774.643 598.192 782.555 605.354L942.28 750.58L871.566 826.898L712.83 682.66Z" fill="#2190C7"/>
<path d="M899.258 851.843L871.566 826.898L942.28 750.58L968.984 774.537C976.896 781.7 977.638 794.049 970.467 801.952L926.703 850.361C919.533 858.264 907.171 859.005 899.258 851.843Z" fill="#00628D"/>
<path d="M755.11 606.836L735.577 628.571L909.396 786.145L942.28 750.58L782.555 605.354C774.643 598.192 762.28 598.933 755.11 606.836Z" fill="#5EC4E8"/>
<path d="M950.934 823.687L970.467 801.953C977.638 794.049 977.143 781.7 968.984 774.537L942.28 750.58L909.396 786.146L950.934 823.687Z" fill="#2190C7"/>
<path d="M339.725 469.514C345.165 577.445 437.39 660.432 545.192 654.751C653.242 649.317 736.319 557.193 730.632 449.508C725.192 341.577 632.967 258.591 525.165 264.271C417.363 269.705 334.286 361.583 339.725 469.514ZM692.061 451.237C696.511 537.681 630 611.529 543.462 615.975C456.923 620.42 382.995 553.982 378.544 467.538C374.093 381.094 440.604 307.246 527.143 302.801C613.929 298.355 687.61 364.793 692.061 451.237Z" fill="#2190C7"/>
<path d="M413.16 450.99C409.698 401.594 468.05 320.089 555.33 331.451" stroke="#C4FFFF" stroke-width="12.352" stroke-miterlimit="10" stroke-linecap="round"/>
<path opacity="0.12" d="M620.11 327.499C659.176 445.31 594.148 558.675 496.236 611.282C511.319 614.987 526.896 616.715 543.214 615.975C618.626 612.023 678.956 555.464 690.33 483.839C692.061 473.219 692.555 462.351 692.061 451.237C689.341 398.877 661.154 353.926 620.11 327.499Z" fill="#00A3FF"/>
<path d="M692.061 451.237C692.555 462.351 692.061 473.219 690.33 483.839C678.956 555.711 618.874 612.023 543.214 615.975C526.896 616.716 511.071 615.234 496.236 611.282C479.67 620.173 462.363 627.336 444.313 632.522C474.231 648.329 508.846 656.48 545.192 654.504C653.242 649.07 736.319 556.946 730.632 449.261C726.429 365.534 669.808 296.873 594.148 272.916C605.275 291.193 613.929 309.222 619.863 327.499C661.154 353.926 689.341 398.877 692.061 451.237Z" fill="#00628D"/>
<path d="M365.44 468.032C370.385 561.885 450.247 634.004 544.204 629.065C638.16 624.125 710.357 544.35 705.412 450.496C700.467 356.643 620.605 284.524 526.649 289.464C432.693 294.156 360.495 374.179 365.44 468.032ZM692.061 451.237C696.511 537.681 630 611.529 543.462 615.975C456.923 620.42 382.995 553.982 378.544 467.538C374.094 381.094 440.605 307.246 527.143 302.801C613.929 298.108 687.61 364.546 692.061 451.237Z" fill="#5EC4E8"/>
<path d="M968.203 348.815C977.685 341.894 979.755 328.605 972.826 319.134C965.897 309.662 952.594 307.595 943.112 314.516C933.63 321.437 931.56 334.726 938.489 344.198C945.418 353.669 958.721 355.737 968.203 348.815Z" stroke="white" stroke-width="1.6996" stroke-miterlimit="10"/>
<path d="M1076.29 415.919C1076.29 420.364 1072.83 423.822 1068.38 423.822C1063.93 423.822 1060.47 420.364 1060.47 415.919C1060.47 411.473 1063.93 408.015 1068.38 408.015C1072.83 408.015 1076.29 411.72 1076.29 415.919Z" stroke="white" stroke-width="1.6996" stroke-miterlimit="10"/>
<path d="M899.258 381.835C899.258 388.257 894.066 393.69 887.39 393.69C880.962 393.69 875.522 388.504 875.522 381.835C875.522 375.413 880.714 369.98 887.39 369.98C894.066 369.98 899.258 375.413 899.258 381.835Z" stroke="white" stroke-width="1.6996" stroke-miterlimit="10"/>
<path d="M953.159 230.682C953.159 233.646 950.687 236.115 947.72 236.115C944.753 236.115 942.28 233.646 942.28 230.682C942.28 227.718 944.753 225.248 947.72 225.248C950.687 225.001 953.159 227.471 953.159 230.682Z" stroke="white" stroke-width="1.6996" stroke-miterlimit="10"/>
<path d="M118.434 383.317C118.434 389.985 112.995 395.419 106.319 395.419C99.6429 395.419 94.2034 389.985 94.2034 383.317C94.2034 376.648 99.6429 371.215 106.319 371.215C112.995 371.215 118.434 376.648 118.434 383.317Z" stroke="white" stroke-width="1.8565" stroke-miterlimit="10"/>
<path d="M48.4616 467.044C53.5141 467.044 57.6099 462.953 57.6099 457.906C57.6099 452.859 53.5141 448.767 48.4616 448.767C43.4091 448.767 39.3132 452.859 39.3132 457.906C39.3132 462.953 43.4091 467.044 48.4616 467.044Z" stroke="white" stroke-width="1.8565" stroke-miterlimit="10"/>
<path d="M52.9122 274.398C52.9122 280.078 48.4616 284.524 42.7748 284.524C37.088 284.524 32.6375 280.078 32.6375 274.398C32.6375 268.717 37.088 264.271 42.7748 264.271C48.2144 264.271 52.9122 268.717 52.9122 274.398Z" stroke="white" stroke-width="1.8565" stroke-miterlimit="10"/>
<path d="M36.0991 371.956C36.0991 374.179 34.3683 375.907 32.1431 375.907C29.9178 375.907 28.187 374.179 28.187 371.956C28.187 369.733 29.9178 368.004 32.1431 368.004C34.3683 367.757 36.0991 369.733 36.0991 371.956Z" stroke="white" stroke-width="1.8565" stroke-miterlimit="10"/>
<path d="M160.715 232.411C164.128 232.411 166.896 229.646 166.896 226.236C166.896 222.826 164.128 220.061 160.715 220.061C157.301 220.061 154.533 222.826 154.533 226.236C154.533 229.646 157.301 232.411 160.715 232.411Z" stroke="white" stroke-width="1.8565" stroke-miterlimit="10"/>
<path d="M62.3077 654.998C62.3077 658.455 59.5879 661.172 56.1264 661.172C52.6648 661.172 49.9451 658.455 49.9451 654.998C49.9451 651.54 52.6648 648.823 56.1264 648.823C59.5879 648.823 62.3077 651.54 62.3077 654.998Z" stroke="white" stroke-width="1.8565" stroke-miterlimit="10"/>
<path d="M1055.52 356.149C1055.52 357.631 1054.29 358.866 1052.8 358.866C1051.32 358.866 1050.08 357.631 1050.08 356.149C1050.08 354.667 1051.32 353.432 1052.8 353.432C1054.29 353.432 1055.52 354.667 1055.52 356.149Z" stroke="white" stroke-width="1.6996" stroke-miterlimit="10"/>
<path d="M1021.4 265.259V278.596" stroke="white" stroke-width="1.1681" stroke-miterlimit="10" stroke-linecap="round"/>
<path d="M1021.4 291.686V305.27" stroke="white" stroke-width="1.1681" stroke-miterlimit="10" stroke-linecap="round"/>
<path d="M1041.43 285.265H1027.83" stroke="white" stroke-width="1.1681" stroke-miterlimit="10" stroke-linecap="round"/>
<path d="M1014.73 285.265H1001.37" stroke="white" stroke-width="1.1681" stroke-miterlimit="10" stroke-linecap="round"/>
<path d="M625.302 1.48193V15.066" stroke="white" stroke-width="1.1681" stroke-miterlimit="10" stroke-linecap="round"/>
<path d="M625.302 28.156V41.4931" stroke="white" stroke-width="1.1681" stroke-miterlimit="10" stroke-linecap="round"/>
<path d="M645.33 21.4875H631.731" stroke="white" stroke-width="1.1681" stroke-miterlimit="10" stroke-linecap="round"/>
<path d="M618.627 21.4875H605.275" stroke="white" stroke-width="1.1681" stroke-miterlimit="10" stroke-linecap="round"/>
<path d="M1058.49 590.041V603.625" stroke="white" stroke-width="1.1681" stroke-miterlimit="10" stroke-linecap="round"/>
<path d="M1058.49 616.715V630.052" stroke="white" stroke-width="1.1681" stroke-miterlimit="10" stroke-linecap="round"/>
<path d="M1078.52 610.047H1064.92" stroke="white" stroke-width="1.1681" stroke-miterlimit="10" stroke-linecap="round"/>
<path d="M1051.81 610.047H1038.46" stroke="white" stroke-width="1.1681" stroke-miterlimit="10" stroke-linecap="round"/>
<path d="M1033.76 459.635V473.219" stroke="white" stroke-width="1.1681" stroke-miterlimit="10" stroke-linecap="round"/>
<path d="M1033.76 486.309V499.646" stroke="white" stroke-width="1.1681" stroke-miterlimit="10" stroke-linecap="round"/>
<path d="M1053.79 479.64H1040.19" stroke="white" stroke-width="1.1681" stroke-miterlimit="10" stroke-linecap="round"/>
<path d="M1027.09 479.64H1013.49" stroke="white" stroke-width="1.1681" stroke-miterlimit="10" stroke-linecap="round"/>
<path d="M39.5603 678.214V691.798" stroke="white" stroke-width="1.1681" stroke-miterlimit="10" stroke-linecap="round"/>
<path d="M39.5603 704.888V718.472" stroke="white" stroke-width="1.1681" stroke-miterlimit="10" stroke-linecap="round"/>
<path d="M59.5879 698.467H45.989" stroke="white" stroke-width="1.1681" stroke-miterlimit="10" stroke-linecap="round"/>
<path d="M32.8845 698.467H19.2856" stroke="white" stroke-width="1.1681" stroke-miterlimit="10" stroke-linecap="round"/>
<path d="M883.928 141.768V155.352" stroke="white" stroke-width="1.1681" stroke-miterlimit="10" stroke-linecap="round"/>
<path d="M883.928 168.442V181.779" stroke="white" stroke-width="1.1681" stroke-miterlimit="10" stroke-linecap="round"/>
<path d="M904.203 161.774H890.604" stroke="white" stroke-width="1.1681" stroke-miterlimit="10" stroke-linecap="round"/>
<path d="M877.5 161.774H863.901" stroke="white" stroke-width="1.1681" stroke-miterlimit="10" stroke-linecap="round"/>
<path d="M238.352 122.75V137.322" stroke="white" stroke-width="1.2759" stroke-miterlimit="10" stroke-linecap="round"/>
<path d="M238.352 151.647V166.466" stroke="white" stroke-width="1.2759" stroke-miterlimit="10" stroke-linecap="round"/>
<path d="M260.357 144.485H245.522" stroke="white" stroke-width="1.2759" stroke-miterlimit="10" stroke-linecap="round"/>
<path d="M231.181 144.485H216.594" stroke="white" stroke-width="1.2759" stroke-miterlimit="10" stroke-linecap="round"/>
<path d="M126.099 269.952V284.524" stroke="white" stroke-width="1.2759" stroke-miterlimit="10" stroke-linecap="round"/>
<path d="M126.099 298.849V313.668" stroke="white" stroke-width="1.2759" stroke-miterlimit="10" stroke-linecap="round"/>
<path d="M148.104 291.686H133.269" stroke="white" stroke-width="1.2759" stroke-miterlimit="10" stroke-linecap="round"/>
<path d="M118.929 291.686H104.094" stroke="white" stroke-width="1.2759" stroke-miterlimit="10" stroke-linecap="round"/>
<path d="M176.044 407.274V422.093" stroke="white" stroke-width="1.2759" stroke-miterlimit="10" stroke-linecap="round"/>
<path d="M176.044 436.418V451.237" stroke="white" stroke-width="1.2759" stroke-miterlimit="10" stroke-linecap="round"/>
<path d="M197.802 429.256H183.214" stroke="white" stroke-width="1.2759" stroke-miterlimit="10" stroke-linecap="round"/>
<path d="M168.874 429.256H154.039" stroke="white" stroke-width="1.2759" stroke-miterlimit="10" stroke-linecap="round"/>
<path d="M388.929 148.437C388.929 155.352 383.242 161.033 376.319 161.033C369.396 161.033 363.709 155.352 363.709 148.437C363.709 141.521 369.396 135.84 376.319 135.84C383.242 135.84 388.929 141.274 388.929 148.437Z" stroke="white" stroke-width="1.6996" stroke-miterlimit="10"/>
<path d="M564.263 80.1186C575.102 75.6057 580.227 63.1699 575.709 52.3424C571.191 41.5148 558.742 36.3958 547.902 40.9086C537.063 45.4215 531.938 57.8573 536.456 68.6848C540.974 79.5123 553.423 84.6314 564.263 80.1186Z" stroke="white" stroke-width="1.6996" stroke-miterlimit="10"/>
<path d="M754.616 161.033C760.214 161.033 764.753 156.499 764.753 150.906C764.753 145.314 760.214 140.78 754.616 140.78C749.017 140.78 744.478 145.314 744.478 150.906C744.478 156.499 749.017 161.033 754.616 161.033Z" stroke="white" stroke-width="1.6996" stroke-miterlimit="10"/>
<path d="M17.3078 561.144C25.6375 561.144 32.3902 554.399 32.3902 546.078C32.3902 537.758 25.6375 531.012 17.3078 531.012C8.97797 531.012 2.22534 537.758 2.22534 546.078C2.22534 554.399 8.97797 561.144 17.3078 561.144Z" stroke="white" stroke-width="1.6996" stroke-miterlimit="10"/>
<path d="M73.9286 813.807C73.9286 822.946 66.511 830.108 57.6099 830.108C48.7088 830.108 41.2913 822.699 41.2913 813.807C41.2913 804.916 48.7088 797.507 57.6099 797.507C66.511 797.507 73.9286 804.669 73.9286 813.807Z" stroke="white" stroke-width="1.6996" stroke-miterlimit="10"/>
<path d="M1021.15 654.257C1021.15 659.69 1016.7 664.383 1011.02 664.383C1005.33 664.383 1000.88 659.937 1000.88 654.257C1000.88 648.576 1005.33 644.13 1011.02 644.13C1016.7 644.13 1021.15 648.823 1021.15 654.257Z" stroke="white" stroke-width="1.6996" stroke-miterlimit="10"/>
<path d="M1070.85 729.339C1070.85 738.478 1063.43 745.64 1054.53 745.64C1045.63 745.64 1038.21 738.231 1038.21 729.339C1038.21 720.448 1045.63 713.039 1054.53 713.039C1063.43 713.039 1070.85 720.448 1070.85 729.339Z" stroke="white" stroke-width="1.6996" stroke-miterlimit="10"/>
</g>
<defs>
<clipPath id="clip0">
<rect width="1080" height="894.571" fill="white"/>
</clipPath>
</defs>
</svg>
