<svg width="24" height="24" viewBox="0 0 24 24" fill="none" xmlns="http://www.w3.org/2000/svg">
<path d="M23.5891 4.29272C23.3707 2.24597 21.7542 0.62915 19.7073 0.410889C14.5741 -0.136963 9.4259 -0.136963 4.29291 0.410889C2.24597 0.629333 0.629333 2.24597 0.410889 4.29272C-0.136963 9.42572 -0.136963 14.5741 0.410889 19.7071C0.629333 21.754 2.24597 23.3707 4.29272 23.5891C9.42572 24.137 14.5741 24.137 19.7073 23.5891C21.7542 23.3707 23.3707 21.754 23.5891 19.7071C24.137 14.5741 24.137 9.4259 23.5891 4.29272V4.29272Z" fill="url(#paint0_radial)"/>
<path d="M22.2837 5.1608C22.09 3.34457 20.6555 1.90994 18.8391 1.71603C14.2842 1.23007 9.71573 1.23007 5.1608 1.71603C3.34457 1.90994 1.90994 3.34457 1.71603 5.1608C1.23007 9.71573 1.23007 14.2842 1.71603 18.839C1.90994 20.6554 3.34457 22.09 5.1608 22.2837C9.71573 22.7699 14.2842 22.7699 18.839 22.2837C20.6554 22.09 22.09 20.6554 22.2837 18.839C22.7699 14.2842 22.7699 9.71573 22.2837 5.1608V5.1608Z" fill="url(#paint1_linear)"/>
<path d="M0.359619 19.2095C0.376099 19.3754 0.393127 19.5413 0.410889 19.7072C0.629333 21.7539 2.24597 23.3705 4.29291 23.589C9.4259 24.1368 14.5743 24.1368 19.7073 23.589C21.7542 23.3705 23.3707 21.7539 23.5891 19.7072C23.6069 19.5413 23.6239 19.3754 23.6406 19.2095H0.359619Z" fill="url(#paint2_linear)"/>
<path d="M23.5891 19.7071C23.8835 16.949 24.0193 14.1865 23.9974 11.4243L18.5115 5.9385C17.8262 5.15609 16.8251 4.66775 15.6489 4.62545C13.2299 4.5383 10.8032 4.54269 8.38379 4.62582C6.37439 4.69504 4.96924 6.04562 4.60889 8.03067C4.54535 8.38113 4.50726 8.73617 4.45728 9.0892V14.9087C4.48492 15.0973 4.52557 15.2849 4.53821 15.4746C4.61877 16.682 5.11499 17.7162 5.90948 18.4159L11.492 23.9982C14.2316 24.0174 16.9714 23.8812 19.7072 23.5891C21.7542 23.3707 23.3706 21.7541 23.5891 19.7071V19.7071Z" fill="url(#paint3_linear)"/>
<path d="M23.5892 19.7073C23.3709 21.7538 21.7539 23.3708 19.7073 23.5891C16.9719 23.881 14.2316 24.0174 11.4923 23.9982L5.91821 18.4241C6.56439 18.9897 7.40668 19.3341 8.38409 19.3709C10.8029 19.4617 13.2302 19.4594 15.649 19.3722C17.8367 19.2931 19.4199 17.6739 19.4882 15.4861C19.561 13.1633 19.561 10.8344 19.4882 8.51147C19.457 7.5022 19.1027 6.61414 18.5153 5.94214L23.9977 11.4245C24.0193 14.1863 23.8834 16.9492 23.5892 19.7073Z" fill="url(#paint4_linear)"/>
<path d="M14.8318 9.40106C14.129 8.63586 13.1207 8.15576 11.9999 8.15576C9.87695 8.15576 8.15576 9.87695 8.15576 11.9999C8.15576 13.1207 8.63586 14.129 9.40106 14.8318L18.295 23.7258C18.7658 23.6848 19.2366 23.6392 19.707 23.589C21.7539 23.3705 23.3705 21.7539 23.589 19.707C23.6392 19.2366 23.6848 18.7658 23.7258 18.295L14.8318 9.40106Z" fill="url(#paint5_linear)"/>
<path d="M23.9536 14.5851L16.7956 7.42737C16.6286 7.20819 16.3655 7.06592 16.0687 7.06592C15.5637 7.06592 15.1541 7.47534 15.1541 7.98053C15.1541 8.27734 15.2963 8.54047 15.5155 8.70746L23.8256 17.0177C23.882 16.2071 23.9246 15.3961 23.9536 14.5851V14.5851Z" fill="url(#paint6_linear)"/>
<path d="M4.45728 9.0892C4.50726 8.73617 4.54535 8.38113 4.60889 8.03067C4.96906 6.04562 6.37439 4.69504 8.38379 4.62582C10.8032 4.54269 13.2299 4.5383 15.6489 4.62545C17.8359 4.70419 19.4197 6.32358 19.488 8.51132C19.5607 10.8344 19.5607 13.1631 19.488 15.4862C19.4197 17.6739 17.8364 19.2931 15.649 19.372C13.23 19.4594 10.8028 19.4616 8.38397 19.3708C6.19659 19.2885 4.68451 17.6655 4.53821 15.4745C4.52557 15.2849 4.48492 15.0971 4.45728 14.9085C4.45728 12.9687 4.45728 11.0288 4.45728 9.0892V9.0892ZM12.002 18.0755C13.109 18.0755 14.2172 18.1086 15.3228 18.0678C17.0562 18.0035 18.1224 16.969 18.1629 15.2371C18.2131 13.0793 18.2131 10.9184 18.1629 8.76034C18.1224 7.0289 17.0555 5.97018 15.3228 5.93338C13.1235 5.88687 10.9218 5.88723 8.72253 5.93338C7.00299 5.96945 5.93365 7.00674 5.88696 8.71914C5.82764 10.9043 5.82764 13.0934 5.88696 15.2785C5.93365 16.9908 7.00299 18.0041 8.72272 18.0678C9.81439 18.1084 10.9088 18.0755 12.002 18.0755V18.0755Z" fill="url(#paint7_linear)"/>
<path d="M4.45728 9.0892C4.50726 8.73617 4.54535 8.38113 4.60889 8.03067C4.96906 6.04562 6.37439 4.69504 8.38379 4.62582C10.8032 4.54269 13.2299 4.5383 15.6489 4.62545C17.8359 4.70419 19.4197 6.32358 19.488 8.51132C19.5607 10.8344 19.5607 13.1631 19.488 15.4862C19.4197 17.6739 17.8364 19.2931 15.649 19.372C13.23 19.4594 10.8028 19.4616 8.38397 19.3708C6.19659 19.2885 4.68451 17.6655 4.53821 15.4745C4.52557 15.2849 4.48492 15.0971 4.45728 14.9085C4.45728 12.9687 4.45728 11.0288 4.45728 9.0892V9.0892ZM12.002 18.0755C13.109 18.0755 14.2172 18.1086 15.3228 18.0678C17.0562 18.0035 18.1224 16.969 18.1629 15.2371C18.2131 13.0793 18.2131 10.9184 18.1629 8.76034C18.1224 7.0289 17.0555 5.97018 15.3228 5.93338C13.1235 5.88687 10.9218 5.88723 8.72253 5.93338C7.00299 5.96945 5.93365 7.00674 5.88696 8.71914C5.82764 10.9043 5.82764 13.0934 5.88696 15.2785C5.93365 16.9908 7.00299 18.0041 8.72272 18.0678C9.81439 18.1084 10.9088 18.0755 12.002 18.0755V18.0755Z" fill="white"/>
<path d="M11.9999 8.15601C9.87695 8.15601 8.15576 9.87701 8.15576 11.9999C8.15576 14.123 9.87695 15.8441 11.9999 15.8441C14.123 15.8441 15.844 14.123 15.844 11.9999C15.844 9.87701 14.123 8.15601 11.9999 8.15601ZM11.9999 14.5206C10.6077 14.5206 9.47925 13.3921 9.47925 11.9999C9.47925 10.6078 10.6077 9.47931 11.9999 9.47931C13.392 9.47931 14.5205 10.6078 14.5205 11.9999C14.5205 13.3921 13.392 14.5206 11.9999 14.5206Z" fill="white"/>
<path d="M16.9828 7.98077C16.9828 8.48578 16.5734 8.8952 16.0684 8.8952C15.5634 8.8952 15.1538 8.48578 15.1538 7.98077C15.1538 7.47559 15.5634 7.06616 16.0684 7.06616C16.5734 7.06616 16.9828 7.47559 16.9828 7.98077Z" fill="white"/>
<defs>
<radialGradient id="paint0_radial" cx="0" cy="0" r="1" gradientUnits="userSpaceOnUse" gradientTransform="translate(4.91986 20.9741) scale(26.4678)">
<stop stop-color="#FAE100"/>
<stop offset="0.0544" stop-color="#FADC04"/>
<stop offset="0.1167" stop-color="#FBCE0E"/>
<stop offset="0.1829" stop-color="#FCB720"/>
<stop offset="0.2514" stop-color="#FE9838"/>
<stop offset="0.3054" stop-color="#FF7950"/>
<stop offset="0.4922" stop-color="#FF1C74"/>
<stop offset="1" stop-color="#6C1CD1"/>
</radialGradient>
<linearGradient id="paint1_linear" x1="9.20494" y1="10.4278" x2="-31.4539" y2="-12.4428" gradientUnits="userSpaceOnUse">
<stop stop-color="#A1B5D8" stop-opacity="0"/>
<stop offset="0.3094" stop-color="#90A2BD" stop-opacity="0.309804"/>
<stop offset="0.7554" stop-color="#7C8B9C" stop-opacity="0.756863"/>
<stop offset="1" stop-color="#748290"/>
</linearGradient>
<linearGradient id="paint2_linear" x1="12" y1="21.1858" x2="12" y2="24.9268" gradientUnits="userSpaceOnUse">
<stop stop-color="#FAE100" stop-opacity="0"/>
<stop offset="0.3068" stop-color="#FCA800" stop-opacity="0.305882"/>
<stop offset="0.6275" stop-color="#FE7300" stop-opacity="0.627451"/>
<stop offset="0.8685" stop-color="#FF5200" stop-opacity="0.866667"/>
<stop offset="1" stop-color="#FF4500"/>
</linearGradient>
<linearGradient id="paint3_linear" x1="10.6346" y1="10.6007" x2="4.69497" y2="4.6611" gradientUnits="userSpaceOnUse">
<stop stop-color="#833AB4" stop-opacity="0"/>
<stop offset="1" stop-color="#833AB4"/>
</linearGradient>
<linearGradient id="paint4_linear" x1="16.4485" y1="21.951" x2="13.4839" y2="7.9752" gradientUnits="userSpaceOnUse">
<stop stop-color="#833AB4" stop-opacity="0"/>
<stop offset="1" stop-color="#833AB4"/>
</linearGradient>
<linearGradient id="paint5_linear" x1="17.5764" y1="17.5764" x2="5.66899" y2="5.66898" gradientUnits="userSpaceOnUse">
<stop stop-color="#833AB4" stop-opacity="0"/>
<stop offset="1" stop-color="#833AB4"/>
</linearGradient>
<linearGradient id="paint6_linear" x1="18.4597" y1="10.3716" x2="14.5222" y2="6.43405" gradientUnits="userSpaceOnUse">
<stop stop-color="#833AB4" stop-opacity="0"/>
<stop offset="1" stop-color="#833AB4"/>
</linearGradient>
<linearGradient id="paint7_linear" x1="16.7652" y1="7.26797" x2="7.05662" y2="16.9765" gradientUnits="userSpaceOnUse">
<stop stop-color="#833AB4"/>
<stop offset="0.0922" stop-color="#9C3495"/>
<stop offset="0.2927" stop-color="#DC2546"/>
<stop offset="0.392" stop-color="#FD1D1D"/>
<stop offset="0.5589" stop-color="#FC6831"/>
<stop offset="0.6887" stop-color="#FC9B40"/>
<stop offset="0.7521" stop-color="#FCAF45"/>
<stop offset="0.7806" stop-color="#FDB750"/>
<stop offset="0.8656" stop-color="#FECB6A"/>
<stop offset="0.9415" stop-color="#FFD87A"/>
<stop offset="1" stop-color="#FFDC80"/>
</linearGradient>
</defs>
</svg>
