<svg width="24" height="24" viewBox="0 0 24 24" fill="none" xmlns="http://www.w3.org/2000/svg">
<g clip-path="url(#clip0)">
<path d="M12 24.0001C18.6275 24.0001 24.0001 18.6275 24.0001 12C24.0001 5.37259 18.6275 0 12 0C5.37259 0 0 5.37259 0 12C0 18.6275 5.37259 24.0001 12 24.0001Z" fill="#D42428"/>
<path d="M20.4849 3.51343C25.1712 8.20014 25.1716 15.7984 20.4849 20.4851C15.7986 25.1714 8.19989 25.1716 3.51318 20.4851L20.4849 3.51343Z" fill="#CC202D"/>
<path d="M23.8171 14.076L15.7411 6.00003L15.0897 6.65146L14.4382 6.00003L13.7242 6.714L14.2038 7.19357L14.0473 7.3501L12.8037 6.10652L12.7506 6.15995L11.0749 4.48416L10.3609 5.19814L10.5562 5.39351L10.2694 5.68039L9.06139 4.47241L8.56061 4.97319L9.73825 7.8092L9.2079 9.98658L10.6578 11.4369L6.99056 11.6934L6.93506 18.0572L12.8365 23.9659C18.366 23.5731 22.881 19.4372 23.8171 14.076Z" fill="#BA202E"/>
<path d="M16.2922 14.7824H15.5179L15.5217 14.333C15.5217 14.1331 15.6856 13.97 15.8863 13.97H15.9359C16.1366 13.97 16.3012 14.1331 16.3012 14.333L16.2922 14.7824ZM13.3894 13.8193C13.1937 13.8193 13.033 13.9513 13.033 14.1128V16.2985C13.033 16.4599 13.1937 16.5912 13.3894 16.5912C13.5867 16.5912 13.7474 16.4599 13.7474 16.2985V14.1126C13.7474 13.9513 13.5867 13.8193 13.3894 13.8193ZM18.1025 12.5969V16.7546C18.1025 17.752 17.2377 18.5679 16.1802 18.5679H8.2768C7.21907 18.5679 6.35449 17.7518 6.35449 16.7546V12.5969C6.35449 11.5994 7.21913 10.7832 8.2768 10.7832H16.1804C17.2377 10.7832 18.1025 11.5996 18.1025 12.5969ZM8.80376 17.2061L8.80341 12.8264L9.78305 12.8268V12.1776L7.17137 12.1736V12.8114L7.98673 12.8139V17.2059H8.80376V17.2061V17.2061ZM11.7408 13.479H10.9239V15.8176C10.9239 16.156 10.9441 16.3252 10.9228 16.3847C10.8561 16.566 10.5574 16.7586 10.4413 16.4044C10.4216 16.3423 10.439 16.155 10.4386 15.8335L10.4348 13.4787H9.62252L9.62555 15.7963C9.62591 16.1516 9.6174 16.4165 9.62819 16.537C9.64809 16.7496 9.6407 16.9976 9.83835 17.1388C10.2056 17.4039 10.91 17.0994 11.0863 16.721L11.0848 17.2038L11.7405 17.2048V13.479H11.7408ZM14.3539 16.1569L14.3524 14.2104C14.3517 13.4683 13.7969 13.024 13.0431 13.6243L13.0465 12.177L12.2303 12.1783L12.2263 17.1733L12.8973 17.1634L12.9583 16.8521C13.8161 17.6397 14.3554 17.1004 14.3539 16.1569ZM16.9108 15.8991L16.298 15.9023C16.298 15.9268 16.2969 15.9546 16.2965 15.9853V16.3271C16.2965 16.51 16.1455 16.6589 15.9619 16.6589H15.8419C15.6579 16.6589 15.5069 16.51 15.5069 16.3271V16.2892V15.9129V15.4278H16.9095V14.8999C16.9095 14.5143 16.8995 14.1287 16.8676 13.9082C16.7674 13.2103 15.7881 13.0997 15.2932 13.4568C15.1379 13.5684 15.0194 13.7177 14.9501 13.9186C14.8806 14.1193 14.8461 14.3931 14.8461 14.7414V15.9019C14.8466 17.8312 17.1899 17.5585 16.9108 15.8991ZM13.7688 9.59758C13.8107 9.70027 13.8761 9.78307 13.9653 9.84597C14.0526 9.90734 14.1652 9.93864 14.2995 9.93864C14.4172 9.93864 14.5216 9.90679 14.6122 9.84105C14.7029 9.77568 14.7795 9.6783 14.8416 9.54795L14.8261 9.86855H15.7365V5.99624H15.0197V9.01C15.0197 9.17296 14.885 9.30655 14.7207 9.30655C14.5575 9.30655 14.4224 9.17296 14.4224 9.01V5.99624H13.6745V8.60791C13.6745 8.94067 13.6804 9.16253 13.6904 9.2751C13.7011 9.38686 13.7267 9.49392 13.7688 9.59758ZM11.0096 7.41057C11.0096 7.03882 11.0406 6.74871 11.102 6.53951C11.1638 6.33087 11.2756 6.1632 11.4367 6.03701C11.5977 5.90985 11.8039 5.8464 12.054 5.8464C12.2645 5.8464 12.4451 5.88787 12.5961 5.96879C12.7471 6.05027 12.8644 6.15581 12.9451 6.28636C13.0281 6.41732 13.0838 6.55202 13.114 6.68976C13.1447 6.82922 13.1594 7.04014 13.1594 7.32378V8.30321C13.1594 8.66245 13.1451 8.92659 13.1172 9.09452C13.0897 9.26279 13.0303 9.41871 12.9381 9.56481C12.8472 9.70959 12.7297 9.81776 12.5872 9.88673C12.4436 9.95667 12.2793 9.99075 12.0932 9.99075C11.8859 9.99075 11.7108 9.96214 11.567 9.90208C11.4226 9.84257 11.3108 9.75274 11.2314 9.63358C11.1507 9.51422 11.0944 9.36888 11.0605 9.19949C11.026 9.0299 11.0097 8.77543 11.0097 8.43589V7.41057H11.0096V7.41057ZM11.7224 8.94898C11.7224 9.16799 11.8859 9.34706 12.0847 9.34706C12.2834 9.34706 12.4458 9.1682 12.4458 8.94898V6.88741C12.4458 6.66839 12.2834 6.48933 12.0847 6.48933C11.8859 6.48933 11.7224 6.66819 11.7224 6.88741V8.94898ZM9.2024 9.98979H10.0617L10.0625 7.01983L11.0776 4.47562H10.1379L9.59826 6.36571L9.05084 4.4707H8.12123L9.20109 7.02156L9.2024 9.98979Z" fill="white"/>
</g>
<defs>
<clipPath id="clip0">
<rect width="24" height="24" fill="white"/>
</clipPath>
</defs>
</svg>
